<svg width="144" height="239" viewBox="0 0 144 239" fill="none" xmlns="http://www.w3.org/2000/svg">
<path d="M6.93359 146.719C6.93359 140.143 8.75651 134.056 12.4023 128.457C16.1133 122.858 22.8841 116.641 32.7148 109.805C28.4831 104.141 25.1628 98.8346 22.7539 93.8867C20.3451 88.8737 19.1406 83.6654 19.1406 78.2617C19.1406 67.194 22.6237 58.2096 29.5898 51.3086C36.6211 44.3424 46.0612 40.8594 57.9102 40.8594C68.5221 40.8594 77.2135 44.0169 83.9844 50.332C90.8203 56.6471 94.2383 64.5247 94.2383 73.9648C94.2383 85.293 88.5091 95.2865 77.0508 103.945L66.1133 111.855L90.625 140.371C94.4661 132.819 96.3867 124.486 96.3867 115.371H120.41C120.41 133.861 116.146 148.835 107.617 160.293L128.906 185H96.875L89.5508 176.602C79.069 183.503 67.0247 186.953 53.418 186.953C39.3555 186.953 28.0924 183.275 19.6289 175.918C11.1654 168.496 6.93359 158.763 6.93359 146.719ZM54.7852 164.297C61.556 164.297 67.9688 162.409 74.0234 158.633L45.9961 126.211L43.9453 127.676C38.151 132.624 35.2539 138.451 35.2539 145.156C35.2539 150.82 37.0443 155.443 40.625 159.023C44.2708 162.539 48.9909 164.297 54.7852 164.297ZM44.4336 77.8711C44.4336 82.7539 47.2982 88.9062 53.0273 96.3281L60.5469 91.3477C64.388 88.8737 67.0247 86.4648 68.457 84.1211C69.9544 81.7773 70.7031 78.9779 70.7031 75.7227C70.7031 72.4674 69.4987 69.6354 67.0898 67.2266C64.681 64.8177 61.5885 63.6133 57.8125 63.6133C53.776 63.6133 50.5208 64.9154 48.0469 67.5195C45.638 70.1237 44.4336 73.5742 44.4336 77.8711Z" fill="black"/>
<path d="M18.9336 151.719C18.9336 145.143 20.7565 139.056 24.4023 133.457C28.1133 127.858 34.8841 121.641 44.7148 114.805C40.4831 109.141 37.1628 103.835 34.7539 98.8867C32.3451 93.8737 31.1406 88.6654 31.1406 83.2617C31.1406 72.194 34.6237 63.2096 41.5898 56.3086C48.6211 49.3424 58.0612 45.8594 69.9102 45.8594C80.5221 45.8594 89.2135 49.0169 95.9844 55.332C102.82 61.6471 106.238 69.5247 106.238 78.9648C106.238 90.293 100.509 100.286 89.0508 108.945L78.1133 116.855L102.625 145.371C106.466 137.819 108.387 129.486 108.387 120.371H132.41C132.41 138.861 128.146 153.835 119.617 165.293L140.906 190H108.875L101.551 181.602C91.069 188.503 79.0247 191.953 65.418 191.953C51.3555 191.953 40.0924 188.275 31.6289 180.918C23.1654 173.496 18.9336 163.763 18.9336 151.719ZM66.7852 169.297C73.556 169.297 79.9688 167.409 86.0234 163.633L57.9961 131.211L55.9453 132.676C50.151 137.624 47.2539 143.451 47.2539 150.156C47.2539 155.82 49.0443 160.443 52.625 164.023C56.2708 167.539 60.9909 169.297 66.7852 169.297ZM56.4336 82.8711C56.4336 87.7539 59.2982 93.9062 65.0273 101.328L72.5469 96.3477C76.388 93.8737 79.0247 91.4648 80.457 89.1211C81.9544 86.7773 82.7031 83.9779 82.7031 80.7227C82.7031 77.4674 81.4987 74.6354 79.0898 72.2266C76.681 69.8177 73.5885 68.6133 69.8125 68.6133C65.776 68.6133 62.5208 69.9154 60.0469 72.5195C57.638 75.1237 56.4336 78.5742 56.4336 82.8711Z" fill="white"/>
</svg>
