<svg width="27" height="27" viewBox="0 0 27 27" fill="none" xmlns="http://www.w3.org/2000/svg">
<path d="M4.5 7.59375C4.5 6.77324 4.82595 5.98633 5.40614 5.40614C5.98633 4.82595 6.77324 4.5 7.59375 4.5H18.2813C19.1018 4.5 19.8887 4.82595 20.4689 5.40614C21.0491 5.98633 21.375 6.77324 21.375 7.59375V12.3953C20.7936 12.3666 20.2141 12.4813 19.6875 12.7294V7.59375C19.6875 6.8175 19.0575 6.1875 18.2813 6.1875H7.59375C6.8175 6.1875 6.1875 6.8175 6.1875 7.59375V18.2813C6.1875 18.378 6.19763 18.4725 6.21563 18.5625L11.2624 14.1053C11.725 13.6967 12.3209 13.4712 12.9381 13.4712C13.5553 13.4712 14.1512 13.6967 14.6138 14.1053L16.4216 15.7028L15.2258 16.8975L13.4955 15.3698C13.3414 15.2339 13.143 15.1589 12.9375 15.1589C12.732 15.1589 12.5336 15.2339 12.3795 15.3698L8.622 18.6885C8.1945 18.8291 7.80638 19.0125 7.48575 19.1633L7.44075 19.1858C6.74325 19.512 6.32925 19.6875 5.9265 19.6875C5.80412 19.6878 5.6825 19.668 5.5665 19.629C5.31789 19.5455 5.05007 19.5376 4.797 19.6065C4.60067 19.1923 4.49921 18.7396 4.5 18.2813V7.59375ZM15.75 9.5625C15.6008 9.5625 15.4577 9.62176 15.3523 9.72725C15.2468 9.83274 15.1875 9.97582 15.1875 10.125C15.1875 10.2742 15.2468 10.4173 15.3523 10.5227C15.4577 10.6282 15.6008 10.6875 15.75 10.6875C15.8992 10.6875 16.0423 10.6282 16.1478 10.5227C16.2532 10.4173 16.3125 10.2742 16.3125 10.125C16.3125 9.97582 16.2532 9.83274 16.1478 9.72725C16.0423 9.62176 15.8992 9.5625 15.75 9.5625ZM13.5 10.125C13.5 9.52826 13.7371 8.95597 14.159 8.53401C14.581 8.11205 15.1533 7.875 15.75 7.875C16.3467 7.875 16.919 8.11205 17.341 8.53401C17.763 8.95597 18 9.52826 18 10.125C18 10.7217 17.763 11.294 17.341 11.716C16.919 12.1379 16.3467 12.375 15.75 12.375C15.1533 12.375 14.581 12.1379 14.159 11.716C13.7371 11.294 13.5 10.7217 13.5 10.125ZM22.6991 14.0074L22.8454 14.1266L22.9759 14.2538C23.3921 14.6792 23.6234 15.2518 23.6196 15.847C23.6158 16.4421 23.3772 17.0117 22.9556 17.4319L18.6863 21.7744C18.4118 22.0556 18.0675 22.266 17.6884 22.3886L16.1269 22.8938C16.0976 22.9071 16.0675 22.9187 16.0369 22.9286C15.8344 22.9973 15.6353 23.0591 15.4429 23.1154L15.3113 23.157C15.2535 23.1756 15.1945 23.1899 15.1346 23.1998C13.7768 23.5564 12.6675 23.5913 11.3816 23.3269C10.9946 23.247 10.5469 23.0513 10.3196 22.5844C10.1093 22.1535 10.2105 21.7283 10.2814 21.5044C10.3264 21.3604 10.2161 21.2108 10.0676 21.2344C9.36001 21.3536 8.27438 21.6146 6.63863 22.0939C6.4222 22.1623 6.19092 22.1688 5.971 22.1125C5.75108 22.0563 5.55133 21.9395 5.39438 21.7755C5.13563 21.5078 5.0175 21.1601 4.95338 20.9036C4.9185 20.7619 5.07038 20.6494 5.20875 20.6955C5.43375 20.772 5.67563 20.8125 5.9265 20.8125C6.624 20.8125 7.27088 20.5088 7.91888 20.2028C8.41163 19.971 8.90551 19.7381 9.42526 19.6369C9.80757 19.558 10.1947 19.5042 10.584 19.476C10.9744 19.4535 11.4278 19.4704 11.7923 19.6943C12.0049 19.8248 12.1748 20.0194 12.267 20.2691C12.3514 20.502 12.3458 20.7203 12.3221 20.8778C12.2805 21.1601 12.1511 21.4346 12.078 21.5899L12.0735 21.5966L12.0353 21.6788C12.0328 21.6846 12.0317 21.6908 12.032 21.6971C12.0323 21.7034 12.034 21.7096 12.0371 21.7151C12.0401 21.7206 12.0443 21.7254 12.0495 21.729C12.0546 21.7327 12.0605 21.7351 12.0668 21.7361C12.664 21.835 13.2732 21.8377 13.8713 21.744L14.5316 19.548C14.6385 19.1925 14.832 18.8663 15.0975 18.5963L19.3759 14.2425C19.8088 13.8113 20.3824 13.5501 20.9919 13.5068C21.6014 13.4634 22.2061 13.6407 22.6958 14.0063L22.6991 14.0085V14.0074Z" fill="black"/>
</svg>
