<svg width="34" height="32" viewBox="0 0 34 32" fill="none" xmlns="http://www.w3.org/2000/svg">
<path d="M34 30.3264L24.5027 21.3877C26.7849 18.809 27.923 15.5014 27.6802 12.153C27.4373 8.80461 25.8322 5.67326 23.1988 3.41033C20.5654 1.1474 17.1064 -0.0728699 13.5414 0.00336878C9.97641 0.0796075 6.57987 1.44649 4.05838 3.81965C1.53689 6.19282 0.084583 9.38956 0.00357933 12.7449C-0.0774243 16.1002 1.21911 19.3557 3.62347 21.8342C6.02784 24.3127 9.3549 25.8234 12.9125 26.0519C16.4702 26.2805 19.9845 25.2093 22.7244 23.0613L32.2218 32L34 30.3264ZM2.56016 13.0621C2.56016 10.9552 3.22397 8.89568 4.46764 7.14388C5.71132 5.39207 7.479 4.02671 9.54716 3.22044C11.6153 2.41417 13.8911 2.20322 16.0866 2.61425C18.2821 3.02528 20.2989 4.03984 21.8818 5.52962C23.4647 7.01941 24.5426 8.91751 24.9794 10.9839C25.4161 13.0503 25.1919 15.1922 24.3353 17.1387C23.4786 19.0852 22.0279 20.7489 20.1666 21.9194C18.3053 23.0899 16.1171 23.7147 13.8785 23.7147C10.8777 23.7115 8.00078 22.5882 5.8789 20.5912C3.75702 18.5941 2.56349 15.8864 2.56016 13.0621Z" fill="black"/>
</svg>
