<svg width="93" height="78" viewBox="0 0 93 78" fill="none" xmlns="http://www.w3.org/2000/svg">
<rect y="46" width="93" height="32" fill="black"/>
<path d="M27.973 42V6.7375H21.1433L21.119 29.382L11.3831 6.7375H4.5292V42H11.3831V19.2586L21.1917 42H27.973ZM56.8901 27.3961V21.8742H41.7776V12.2836H58.7792V6.7375H34.948V42H41.7776V27.3961H56.8901ZM90.2151 12.2836V6.7375H61.7823V12.2836H72.5112V42H79.3409V12.2836H90.2151Z" fill="black"/>
<path d="M11.4846 52.3041H6.73013V72.1393H10.2449V66.2677L10.0814 57.3582L12.4109 65.6002H14.3045L16.9065 56.9904L16.7431 66.2677V72.1393H20.2578V52.3041H15.5034L13.3646 59.7559L11.4846 52.3041ZM35.7472 63.4477V60.4234H27.6006V55.4238H37.0823V52.3041H23.7589V72.1393H37.1231V69.0468H27.6006V63.4477H35.7472ZM44.9973 52.3041H40.2428V72.1393H43.7576V66.2677L43.5941 57.3582L45.9236 65.6002H47.8172L50.4192 56.9904L50.2558 66.2677V72.1393H53.7705V52.3041H49.0161L46.8773 59.7559L44.9973 52.3041ZM69.2599 63.4477V60.4234H61.1133V55.4238H70.595V52.3041H57.2716V72.1393H70.6358V69.0468H61.1133V63.4477H69.2599ZM84.109 66.9625C84.109 67.3167 84.0364 67.6436 83.8911 67.9434C83.7458 68.234 83.5369 68.4837 83.2644 68.6926C82.992 68.9015 82.6559 69.065 82.2563 69.1831C81.8658 69.3011 81.4162 69.3601 80.9076 69.3601C80.3355 69.3601 79.8087 69.2966 79.3274 69.1694C78.8551 69.0423 78.4509 68.8425 78.1149 68.57C77.7698 68.2976 77.5019 67.9479 77.3111 67.521C77.1204 67.0942 77.016 66.581 76.9978 65.9816H73.2378C73.2378 67.0079 73.4331 67.9025 73.8236 68.6654C74.2233 69.4283 74.7636 70.0913 75.4448 70.6543C76.1623 71.2265 77.0024 71.6624 77.965 71.9622C78.9368 72.2528 79.9177 72.3981 80.9076 72.3981C81.9157 72.3981 82.8466 72.28 83.7004 72.0439C84.5541 71.7987 85.2897 71.4399 85.9073 70.9677C86.5249 70.5045 87.0062 69.9369 87.3513 69.2648C87.7055 68.5836 87.8826 67.8071 87.8826 66.9352C87.8826 65.9271 87.651 65.0371 87.1879 64.2651C86.7247 63.4932 86.1025 62.8165 85.3215 62.2353C84.8038 61.8811 84.2362 61.5678 83.6186 61.2953C83.001 61.0228 82.3517 60.7913 81.6705 60.6005C81.0348 60.428 80.4626 60.2418 79.954 60.042C79.4545 59.8422 79.0276 59.6197 78.6734 59.3745C78.3192 59.1383 78.0468 58.8704 77.8561 58.5707C77.6744 58.271 77.5836 57.935 77.5836 57.5626C77.5836 57.2084 77.6517 56.8814 77.7879 56.5817C77.9333 56.2729 78.1421 56.005 78.4146 55.778C78.6871 55.56 79.0186 55.392 79.4091 55.2739C79.8087 55.1468 80.2628 55.0832 80.7714 55.0832C81.3254 55.0832 81.8067 55.1604 82.2154 55.3148C82.6332 55.4601 82.9829 55.6644 83.2644 55.9278C83.5369 56.2003 83.7412 56.5227 83.8775 56.8951C84.0228 57.2674 84.1045 57.6761 84.1227 58.1211H87.8554C87.8554 57.2311 87.6828 56.4137 87.3377 55.669C86.9926 54.9243 86.5112 54.2794 85.8937 53.7345C85.2761 53.1987 84.5359 52.7809 83.6731 52.4812C82.8194 52.1815 81.8749 52.0316 80.8395 52.0316C79.8405 52.0316 78.9141 52.1633 78.0604 52.4267C77.2067 52.681 76.4665 53.0488 75.8399 53.5302C75.2132 54.0115 74.7228 54.5928 74.3686 55.2739C74.0144 55.9551 73.8373 56.7134 73.8373 57.549C73.8373 58.2755 73.969 58.9476 74.2323 59.5652C74.5048 60.1828 74.9044 60.7458 75.4312 61.2544C75.9579 61.763 76.6345 62.2308 77.461 62.6576C78.2965 63.0845 79.2638 63.4477 80.3627 63.7475C81.0711 63.9382 81.6614 64.1471 82.1337 64.3741C82.615 64.5921 83.0056 64.8328 83.3053 65.0961C83.5959 65.3686 83.8003 65.6592 83.9183 65.968C84.0455 66.2768 84.109 66.6083 84.109 66.9625Z" fill="white"/>
</svg>
