<svg width="21" height="20" viewBox="0 0 21 20" fill="none" xmlns="http://www.w3.org/2000/svg">
<path d="M18.1512 3.57468L18.155 3.57161C18.0855 3.48704 18.0062 3.41324 17.9337 3.33176C17.7948 3.17417 17.6565 3.01657 17.5085 2.86821C17.4035 2.76366 17.2925 2.66679 17.1838 2.56763C17.0456 2.44078 16.9073 2.31471 16.7623 2.19709C16.6415 2.09869 16.5169 2.00721 16.3923 1.91496C16.2473 1.80734 16.1015 1.70202 15.9505 1.60285C15.8182 1.51669 15.684 1.43364 15.5479 1.35378C15.3928 1.26204 15.2355 1.17466 15.0759 1.09164C14.9369 1.01938 14.7964 0.949421 14.6529 0.884078C14.4853 0.807204 14.3138 0.737248 14.1409 0.668829C13.9974 0.61348 13.8554 0.557362 13.7096 0.508931C13.5238 0.445894 13.3335 0.393619 13.1432 0.342113C13.0027 0.304445 12.8653 0.263702 12.7233 0.232183C12.5043 0.183752 12.28 0.149927 12.0564 0.116871C11.9356 0.0991903 11.8185 0.0738218 11.6969 0.0607532C10.0842 -0.121552 8.45226 0.10797 6.94853 0.728586C5.44481 1.3492 4.11667 2.34136 3.0841 3.61542V0.768766H1.57361V6.91872H7.61557V5.38123H3.69661C4.44702 4.20258 5.47497 3.23355 6.68701 2.56226C7.89904 1.89097 9.25671 1.53871 10.6365 1.53751C10.9366 1.53833 11.2363 1.55552 11.5345 1.58902C11.6372 1.60055 11.7369 1.6213 11.8389 1.63591C12.0277 1.66435 12.2173 1.69357 12.4023 1.73431C12.5232 1.76121 12.6402 1.79581 12.7588 1.82733C12.9197 1.87114 13.0798 1.91496 13.2369 1.96801C13.3607 2.00952 13.4823 2.05718 13.6039 2.10484C13.7497 2.16173 13.8939 2.22015 14.0344 2.2855C14.1567 2.34085 14.2761 2.40081 14.3946 2.46231C14.5296 2.53201 14.662 2.60529 14.7919 2.68217C14.9075 2.75136 15.0223 2.82054 15.134 2.89434C15.2609 2.9789 15.3833 3.06654 15.5056 3.15725C15.6113 3.23567 15.7186 3.31331 15.8205 3.3971C15.9429 3.49704 16.0592 3.60312 16.1755 3.70921C16.2684 3.79377 16.3628 3.87603 16.4512 3.96443C16.5773 4.09051 16.6951 4.22427 16.8129 4.35803C17.7118 5.37846 18.3533 6.6061 18.6822 7.93509C19.0111 9.26408 19.0175 10.6546 18.7008 11.9866C18.3842 13.3187 17.7541 14.5524 16.8647 15.5814C15.9753 16.6104 14.8534 17.4037 13.5957 17.8931C12.3381 18.3824 10.9823 18.5531 9.64539 18.3904C8.30847 18.2276 7.0305 17.7364 5.92165 16.9589C4.8128 16.1815 3.90635 15.1412 3.28044 13.9278C2.65453 12.7144 2.32795 11.3642 2.32886 9.99369H0.818367C0.81637 11.6012 1.19539 13.1856 1.92328 14.6122C2.65116 16.0389 3.70641 17.2657 4.9995 18.1887C6.29258 19.1117 7.78533 19.7035 9.35106 19.914C10.9168 20.1244 12.5093 19.9474 13.9935 19.3977C15.4776 18.8481 16.8096 17.9421 17.8764 16.7567C18.9432 15.5713 19.7133 14.1415 20.1213 12.5885C20.5294 11.0355 20.5634 9.40529 20.2204 7.8361C19.8775 6.2669 19.1676 4.80508 18.1512 3.57468Z" fill="#010101"/>
</svg>
