<?xml version="1.0" standalone="no"?>
<!DOCTYPE svg PUBLIC "-//W3C//DTD SVG 20010904//EN"
 "http://www.w3.org/TR/2001/REC-SVG-20010904/DTD/svg10.dtd">
<svg version="1.0" xmlns="http://www.w3.org/2000/svg"
 width="450.000000pt" height="450.000000pt" viewBox="0 0 450.000000 450.000000"
 preserveAspectRatio="xMidYMid meet">
<metadata>
Created by potrace 1.14, written by Peter Selinger 2001-2017
</metadata>
<g transform="translate(0.000000,450.000000) scale(0.100000,-0.100000)"
fill="#000000" stroke="none">
<path d="M777 4203 c-4 -3 -7 -872 -7 -1930 l0 -1923 260 0 260 0 1 1478 c0
1147 3 1473 12 1458 21 -33 140 -215 272 -416 70 -107 158 -242 196 -300 38
-58 73 -112 79 -120 5 -8 42 -64 81 -125 85 -131 243 -373 394 -603 61 -92
139 -212 175 -267 35 -55 136 -210 225 -345 88 -135 181 -276 205 -314 57 -88
265 -405 282 -428 11 -16 36 -18 270 -18 l258 0 -2 1928 -3 1927 -249 3 c-193
2 -251 -1 -258 -10 -4 -7 -8 -674 -8 -1483 l0 -1470 -92 140 c-50 77 -146 223
-212 325 -67 102 -144 220 -171 263 -47 72 -107 164 -341 523 -50 76 -131 200
-179 274 -49 74 -129 198 -180 275 -104 159 -212 324 -306 469 -35 55 -109
168 -164 252 -55 85 -143 219 -195 299 l-94 145 -252 0 c-138 0 -254 -3 -257
-7z"/>
</g>
</svg>
